<?xml version="1.0" encoding="UTF-8" standalone="no"?>
<!-- Created with Inkscape (http://www.inkscape.org/) -->

<svg
   xmlns:dc="http://purl.org/dc/elements/1.1/"
   xmlns:cc="http://creativecommons.org/ns#"
   xmlns:rdf="http://www.w3.org/1999/02/22-rdf-syntax-ns#"
   xmlns:svg="http://www.w3.org/2000/svg"
   xmlns="http://www.w3.org/2000/svg"
   xmlns:sodipodi="http://sodipodi.sourceforge.net/DTD/sodipodi-0.dtd"
   xmlns:inkscape="http://www.inkscape.org/namespaces/inkscape"
   width="179.26138mm"
   height="80.902817mm"
   viewBox="0 0 179.26139 80.902817"
   version="1.1"
   id="svg8"
   inkscape:export-filename="/home/axel/workspace/xrd_simulator/docs/Math/detector_paramterisation.png"
   inkscape:export-xdpi="99"
   inkscape:export-ydpi="99"
   inkscape:version="0.92.5 (2060ec1f9f, 2020-04-08)"
   sodipodi:docname="detector_paramterisation.svg">
  <defs
     id="defs2">
    <marker
       inkscape:stockid="Arrow1Lend"
       orient="auto"
       refY="0"
       refX="0"
       id="Arrow1Lend"
       style="overflow:visible"
       inkscape:isstock="true">
      <path
         id="path1155"
         d="M 0,0 5,-5 -12.5,0 5,5 Z"
         style="fill:#000000;fill-opacity:1;fill-rule:evenodd;stroke:#000000;stroke-width:1.00000003pt;stroke-opacity:1"
         transform="matrix(-0.8,0,0,-0.8,-10,0)"
         inkscape:connector-curvature="0" />
    </marker>
    <marker
       inkscape:stockid="Arrow1Lend"
       orient="auto"
       refY="0"
       refX="0"
       id="Arrow1Lend-7"
       style="overflow:visible"
       inkscape:isstock="true">
      <path
         inkscape:connector-curvature="0"
         id="path1155-5"
         d="M 0,0 5,-5 -12.5,0 5,5 Z"
         style="fill:#000000;fill-opacity:1;fill-rule:evenodd;stroke:#000000;stroke-width:1.00000003pt;stroke-opacity:1"
         transform="matrix(-0.8,0,0,-0.8,-10,0)" />
    </marker>
    <marker
       inkscape:stockid="Arrow1Lend"
       orient="auto"
       refY="0"
       refX="0"
       id="Arrow1Lend-5"
       style="overflow:visible"
       inkscape:isstock="true">
      <path
         inkscape:connector-curvature="0"
         id="path1155-6"
         d="M 0,0 5,-5 -12.5,0 5,5 Z"
         style="fill:#000000;fill-opacity:1;fill-rule:evenodd;stroke:#000000;stroke-width:1.00000003pt;stroke-opacity:1"
         transform="matrix(-0.8,0,0,-0.8,-10,0)" />
    </marker>
  </defs>
  <sodipodi:namedview
     id="base"
     pagecolor="#ffffff"
     bordercolor="#666666"
     borderopacity="1.0"
     inkscape:pageopacity="0.0"
     inkscape:pageshadow="2"
     inkscape:zoom="1.4"
     inkscape:cx="289.52798"
     inkscape:cy="109.77868"
     inkscape:document-units="mm"
     inkscape:current-layer="layer1"
     showgrid="false"
     inkscape:window-width="1848"
     inkscape:window-height="1016"
     inkscape:window-x="72"
     inkscape:window-y="207"
     inkscape:window-maximized="1" />
  <metadata
     id="metadata5">
    <rdf:RDF>
      <cc:Work
         rdf:about="">
        <dc:format>image/svg+xml</dc:format>
        <dc:type
           rdf:resource="http://purl.org/dc/dcmitype/StillImage" />
        <dc:title></dc:title>
      </cc:Work>
    </rdf:RDF>
  </metadata>
  <g
     inkscape:label="Layer 1"
     inkscape:groupmode="layer"
     id="layer1"
     transform="translate(25.776729,-152.81803)">
    <g
       id="g848"
       transform="matrix(0.60259146,0.14417755,-0.14417755,0.60259146,41.747668,135.68037)">
      <g
         word-spacing="normal"
         letter-spacing="normal"
         font-size-adjust="none"
         font-stretch="normal"
         font-weight="normal"
         font-variant="normal"
         font-style="normal"
         stroke-miterlimit="10.433"
         xml:space="preserve"
         transform="matrix(0.3,0,0,-0.3,-52.5,222.75)"
         id="content"
         style="font-style:normal;font-variant:normal;font-weight:normal;font-stretch:normal;letter-spacing:normal;word-spacing:normal;text-anchor:start;fill:none;fill-opacity:1;fill-rule:evenodd;stroke:#000000;stroke-linecap:butt;stroke-linejoin:miter;stroke-miterlimit:10.43299961;stroke-dasharray:none;stroke-dashoffset:0;stroke-opacity:1"><path
           id="path821"
           d="m 457.27,440.23 v -1.55 h 1.19 c 3.84,0 3.93,-0.54 3.93,-2.34 v -26.25 c 0,-1.8 -0.09,-2.34 -3.93,-2.34 h -1.19 v -1.55 h 18.23 l -1.34,1.55 h -5.05 c -2.32,0 -2.43,0.34 -2.43,1.98 v 26.95 c 0,1.66 0.11,2 2.43,2 h 4.99 c 3.09,0 6.53,-1.09 9.08,-4.64 2.14,-2.93 2.57,-7.22 2.57,-11.11 0,-5.53 -0.93,-8.51 -2.73,-10.95 -1,-1.34 -3.83,-4.23 -8.86,-4.23 l 1.34,-1.55 c 8.36,0 15.24,7.37 15.24,16.73 0,9.47 -6.72,17.3 -15.24,17.3 z"
           inkscape:connector-curvature="0"
           style="fill:#000000;stroke-width:0" /><path
           id="path823"
           d="m 499.09,417.71 0.05,1.05 c 0.29,7.42 4.48,8.66 6.18,8.66 5.13,0 5.63,-6.72 5.63,-8.66 h -11.81 l -0.05,-1.05 H 513 c 1.09,0 1.23,0 1.23,1.05 0,4.92 -2.69,9.75 -8.91,9.75 -5.78,0 -10.37,-5.12 -10.37,-11.36 0,-6.67 5.23,-11.5 10.97,-11.5 6.08,0 8.31,5.53 8.31,6.47 0,0.5 -0.39,0.61 -0.64,0.61 -0.45,0 -0.55,-0.3 -0.66,-0.7 -1.73,-5.13 -6.22,-5.13 -6.72,-5.13 -2.5,0 -4.48,1.49 -5.62,3.33 -1.5,2.39 -1.5,5.69 -1.5,7.48 z"
           inkscape:connector-curvature="0"
           style="fill:#000000;stroke-width:0" /><path
           id="path825"
           d="m 524.26,426.12 h 7.13 v 1.55 h -7.13 v 9.17 h -1.25 c -0.04,-4.08 -1.54,-9.42 -6.42,-9.61 v -1.11 h 4.23 v -13.75 c 0,-6.12 4.63,-6.72 6.43,-6.72 3.53,0 4.93,3.53 4.93,6.72 v 2.84 h -1.25 v -2.73 c 0,-3.69 -1.5,-5.58 -3.34,-5.58 -3.33,0 -3.33,4.53 -3.33,5.38 z"
           inkscape:connector-curvature="0"
           style="fill:#000000;stroke-width:0" /><path
           id="path827"
           d="m 540.48,417.71 0.05,1.05 c 0.3,7.42 4.49,8.66 6.19,8.66 5.12,0 5.62,-6.72 5.62,-8.66 h -11.81 l -0.05,-1.05 h 13.91 c 1.09,0 1.23,0 1.23,1.05 0,4.92 -2.68,9.75 -8.9,9.75 -5.78,0 -10.38,-5.12 -10.38,-11.36 0,-6.67 5.24,-11.5 10.97,-11.5 6.08,0 8.31,5.53 8.31,6.47 0,0.5 -0.39,0.61 -0.64,0.61 -0.45,0 -0.54,-0.3 -0.65,-0.7 -1.74,-5.13 -6.22,-5.13 -6.72,-5.13 -2.5,0 -4.49,1.49 -5.63,3.33 -1.5,2.39 -1.5,5.69 -1.5,7.48 z"
           inkscape:connector-curvature="0"
           style="fill:#000000;stroke-width:0" /><path
           id="path829"
           d="m 562.86,417.06 v 0.38 l 0.01,0.36 0.02,0.36 0.02,0.35 0.02,0.34 0.03,0.34 0.04,0.32 0.04,0.32 0.05,0.31 0.05,0.3 0.05,0.29 0.06,0.29 0.14,0.55 0.15,0.51 0.17,0.49 0.18,0.46 0.19,0.43 0.21,0.4 0.22,0.38 0.24,0.35 0.24,0.32 0.25,0.3 0.25,0.28 0.27,0.26 0.27,0.23 0.27,0.21 0.28,0.19 0.28,0.16 0.28,0.15 0.29,0.13 0.28,0.12 0.28,0.09 0.28,0.08 0.28,0.06 0.27,0.05 0.26,0.03 0.26,0.02 0.25,0.01 c 0.44,0 3.58,-0.05 5.33,-1.85 -2.04,-0.15 -2.34,-1.64 -2.34,-2.29 0,-1.3 0.89,-2.3 2.3,-2.3 1.28,0 2.28,0.86 2.28,2.34 0,3.39 -3.78,5.33 -7.63,5.33 -6.22,0 -10.81,-5.37 -10.81,-11.55 0,-6.37 4.94,-11.31 10.72,-11.31 6.67,0 8.26,5.99 8.26,6.47 0,0.5 -0.5,0.5 -0.64,0.5 -0.45,0 -0.54,-0.19 -0.65,-0.5 -1.44,-4.62 -4.68,-5.22 -6.52,-5.22 -2.64,0 -7.03,2.14 -7.03,10.16 z"
           inkscape:connector-curvature="0"
           style="fill:#000000;stroke-width:0" /><path
           id="path831"
           d="m 587.73,426.12 h 7.13 v 1.55 h -7.13 v 9.17 h -1.25 c -0.04,-4.08 -1.54,-9.42 -6.42,-9.61 v -1.11 h 4.24 v -13.75 c 0,-6.12 4.62,-6.72 6.42,-6.72 3.53,0 4.94,3.53 4.94,6.72 v 2.84 h -1.25 v -2.73 c 0,-3.69 -1.5,-5.58 -3.35,-5.58 -3.33,0 -3.33,4.53 -3.33,5.38 z"
           inkscape:connector-curvature="0"
           style="fill:#000000;stroke-width:0" /><path
           id="path833"
           d="m 621.9,416.86 -0.02,0.59 -0.04,0.59 -0.07,0.58 -0.1,0.57 -0.13,0.56 -0.14,0.55 -0.18,0.54 -0.2,0.53 -0.22,0.51 -0.25,0.5 -0.26,0.49 -0.29,0.47 -0.31,0.46 -0.33,0.44 -0.35,0.43 -0.36,0.4 -0.39,0.39 -0.4,0.37 -0.41,0.35 -0.44,0.32 -0.44,0.31 -0.46,0.28 -0.48,0.26 -0.49,0.24 -0.49,0.21 -0.51,0.18 -0.53,0.16 -0.53,0.13 -0.54,0.11 -0.54,0.07 -0.56,0.05 -0.56,0.01 -0.05,-1.09 c 2.19,0 4.33,-1.1 5.63,-3.24 1.29,-2.14 1.29,-5.03 1.29,-6.92 0,-1.8 0,-4.48 -1.09,-6.67 -1.09,-2.25 -3.28,-3.69 -5.78,-3.69 v 0 c -2.14,0 -4.33,1.05 -5.67,3.33 -1.25,2.2 -1.25,5.23 -1.25,7.03 0,1.94 0,4.63 1.19,6.83 1.35,2.28 3.68,3.33 5.68,3.33 l 0.05,1.09 c -6.22,0 -11.06,-5.42 -11.06,-11.65 0,-6.43 5.18,-11.21 11.01,-11.21 6.03,0 11.07,4.88 11.07,11.21 z"
           inkscape:connector-curvature="0"
           style="fill:#000000;stroke-width:0" /><path
           id="path835"
           d="m 631.7,422.75 v 5.46 l -6.93,-0.54 v -1.55 c 3.49,0 3.89,-0.34 3.89,-2.78 v -13.36 c 0,-2.23 -0.54,-2.23 -3.89,-2.23 v -1.55 c 1.96,0.05 4.28,0.16 5.69,0.16 1.99,0 4.33,0 6.33,-0.16 v 1.55 h -1.05 c -3.69,0 -3.79,0.54 -3.79,2.34 v 7.67 c 0,4.92 2.09,9.36 5.89,9.36 0.34,0 0.43,0 0.54,-0.05 -0.15,-0.04 -1.15,-0.64 -1.15,-1.93 0,-1.41 1.04,-2.14 2.15,-2.14 0.89,0 2.14,0.59 2.14,2.18 0,1.6 -1.54,3.03 -3.68,3.03 -3.64,0 -5.44,-3.32 -6.14,-5.46 z"
           inkscape:connector-curvature="0"
           style="fill:#000000;stroke-width:0" /><path
           id="path837"
           d="m 671.05,421.95 -0.15,1.28 v 13.45 c 0,1.66 0.11,2 2.44,2 h 4.43 c 7.93,0 7.93,-5.28 7.93,-7.72 0,-2.34 0,-7.73 -7.93,-7.73 h -6.87 l 0.15,-1.28 h 8.43 c 5.97,0 11.36,4.03 11.36,9.01 0,4.88 -4.94,9.27 -11.77,9.27 h -17.58 v -1.55 h 1.19 c 3.84,0 3.94,-0.54 3.94,-2.34 v -26.25 c 0,-1.8 -0.1,-2.34 -3.94,-2.34 h -1.19 v -1.55 c 1.74,0.16 5.42,0.16 7.31,0.16 1.9,0 5.65,0 7.38,-0.16 v 1.55 h -1.19 c -3.84,0 -3.94,0.54 -3.94,2.34 z"
           inkscape:connector-curvature="0"
           style="fill:#000000;stroke-width:0" /><path
           id="path839"
           d="m 702.51,440.78 -7.17,-0.55 v -1.55 c 3.48,0 3.89,-0.34 3.89,-2.79 v -25.91 c 0,-2.23 -0.55,-2.23 -3.89,-2.23 v -1.55 c 1.64,0.05 4.28,0.16 5.53,0.16 1.25,0 3.69,-0.11 5.53,-0.16 v 1.55 c -3.34,0 -3.89,0 -3.89,2.23 z"
           inkscape:connector-curvature="0"
           style="fill:#000000;stroke-width:0" /><path
           id="path841"
           d="m 724.09,409.98 0.02,-0.19 0.03,-0.18 0.04,-0.19 0.04,-0.18 0.05,-0.19 0.05,-0.18 0.07,-0.18 0.06,-0.18 0.08,-0.18 0.08,-0.17 0.09,-0.18 0.09,-0.16 0.1,-0.16 0.11,-0.16 0.11,-0.16 0.12,-0.14 0.13,-0.14 0.13,-0.14 0.14,-0.13 0.14,-0.12 0.15,-0.12 0.16,-0.1 0.16,-0.1 0.17,-0.09 0.18,-0.08 0.18,-0.07 0.19,-0.06 0.19,-0.05 0.2,-0.04 0.2,-0.03 0.21,-0.02 0.22,-0.01 c 1.03,0 4.08,0.71 4.08,4.74 v 2.78 h -1.25 v -2.78 c 0,-2.89 -1.24,-3.19 -1.8,-3.19 -1.64,0 -1.84,2.23 -1.84,2.48 v 9.97 c 0,2.1 0,4.03 -1.78,5.88 -1.96,1.93 -4.44,2.73 -6.83,2.73 -4.09,0 -7.53,-2.33 -7.53,-5.62 0,-1.49 1,-2.35 2.29,-2.35 1.4,0 2.3,1 2.3,2.3 0,0.59 -0.25,2.23 -2.55,2.3 1.35,1.73 3.78,2.28 5.38,2.28 2.45,0 5.28,-1.94 5.28,-6.38 v -1.84 -1.05 -4.98 c 0,-4.74 -3.58,-6.42 -5.83,-6.42 -2.43,0 -4.48,1.75 -4.48,4.23 0,2.73 2.09,6.88 10.31,7.17 v 0 1.05 c -2.53,-0.14 -6.01,-0.3 -9.16,-1.8 -3.73,-1.69 -4.98,-4.28 -4.98,-6.47 0,-4.03 4.83,-5.28 7.97,-5.28 3.29,0 5.58,1.99 6.53,4.33 z"
           inkscape:connector-curvature="0"
           style="fill:#000000;stroke-width:0" /><path
           id="path843"
           d="m 737.94,423.34 v -13.36 c 0,-2.23 -0.55,-2.23 -3.89,-2.23 v -1.55 c 1.75,0.05 4.28,0.16 5.62,0.16 1.3,0 3.89,-0.11 5.58,-0.16 v 1.55 c -3.33,0 -3.87,0 -3.87,2.23 v 9.17 c 0,5.19 3.53,7.97 6.71,7.97 3.14,0 3.69,-2.69 3.69,-5.53 v -11.61 c 0,-2.23 -0.55,-2.23 -3.89,-2.23 v -1.55 c 1.75,0.05 4.3,0.16 5.64,0.16 1.3,0 3.88,-0.11 5.58,-0.16 v 1.55 c -2.59,0 -3.84,0 -3.89,1.5 v 9.51 c 0,4.28 0,5.83 -1.55,7.61 -0.69,0.86 -2.34,1.84 -5.22,1.84 -3.64,0 -5.98,-2.14 -7.37,-5.21 v 5.21 l -7.03,-0.54 v -1.55 c 3.48,0 3.89,-0.34 3.89,-2.78 z"
           inkscape:connector-curvature="0"
           style="fill:#000000;stroke-width:0" /><path
           id="path845"
           d="m 765.7,417.71 0.05,1.05 c 0.3,7.42 4.48,8.66 6.19,8.66 5.12,0 5.62,-6.72 5.62,-8.66 h -11.81 l -0.05,-1.05 h 13.91 c 1.09,0 1.23,0 1.23,1.05 0,4.92 -2.68,9.75 -8.9,9.75 -5.78,0 -10.38,-5.12 -10.38,-11.36 0,-6.67 5.24,-11.5 10.97,-11.5 6.08,0 8.31,5.53 8.31,6.47 0,0.5 -0.39,0.61 -0.64,0.61 -0.45,0 -0.54,-0.3 -0.65,-0.7 -1.74,-5.13 -6.22,-5.13 -6.72,-5.13 -2.5,0 -4.49,1.49 -5.63,3.33 -1.5,2.39 -1.5,5.69 -1.5,7.48 z"
           inkscape:connector-curvature="0"
           style="fill:#000000;stroke-width:0" /></g>    </g>
    <g
       id="g1015"
       transform="matrix(0.77831381,0,0,0.77831381,76.697771,152.45515)">
      <g
         word-spacing="normal"
         letter-spacing="normal"
         font-size-adjust="none"
         font-stretch="normal"
         font-weight="normal"
         font-variant="normal"
         font-style="normal"
         stroke-miterlimit="10.433"
         xml:space="preserve"
         transform="matrix(0.3,0,0,-0.3,-52.5,222.75)"
         id="g1013"
         style="font-style:normal;font-variant:normal;font-weight:normal;font-stretch:normal;letter-spacing:normal;word-spacing:normal;text-anchor:start;fill:none;fill-opacity:1;fill-rule:evenodd;stroke:#000000;stroke-linecap:butt;stroke-linejoin:miter;stroke-miterlimit:10.43299961;stroke-dasharray:none;stroke-dashoffset:0;stroke-opacity:1"><path
           id="path1009"
           d="m 485.41,439.03 0.01,0.03 0.01,0.03 0.01,0.03 0.01,0.03 v 0.03 l 0.01,0.03 0.01,0.03 0.01,0.02 v 0.03 l 0.01,0.02 0.01,0.03 v 0.02 l 0.01,0.02 0.01,0.03 v 0.02 l 0.01,0.02 v 0.02 l 0.01,0.02 v 0.02 l 0.01,0.01 v 0.02 l 0.01,0.02 v 0.03 l 0.01,0.03 0.01,0.03 v 0.02 l 0.01,0.03 v 0.02 l 0.01,0.02 v 0.01 0.02 0.01 l 0.01,0.02 v 0.01 0.01 0.01 0.01 0 0.01 0.01 0 0.01 c 0,0.66 -0.54,0.91 -1.09,0.91 -0.2,0 -0.25,0 -0.36,-0.05 l -6.42,-0.3 c -0.7,-0.06 -1.6,-0.11 -1.6,-1.5 0,-0.9 0.9,-0.9 1.3,-0.9 0.55,0 1.44,0 2.1,-0.1 l -2.69,-11.01 c -0.75,0.7 -2.39,1.79 -5.03,1.79 l 0.09,-1.79 c 2.94,0 4.14,-2.33 4.14,-2.88 l -0.11,-0.7 -3.03,-12.5 c -1.45,-1.7 -3.8,-3.25 -6.19,-3.25 -3.08,0 -3.33,2.69 -3.33,3.8 0,2.57 1.69,8.72 2.49,10.65 1.55,3.64 3.98,4.88 6.03,4.88 l -0.09,1.79 c -8.68,0 -14.07,-7.87 -14.07,-14.68 0,-6.14 4.6,-8.24 8.72,-8.24 3.55,0 6.14,1.96 6.94,2.71 1.89,-2.71 5.17,-2.71 5.72,-2.71 1.84,0 3.3,1.05 4.34,2.85 1.25,2 1.89,4.68 1.89,4.93 0,0.71 -0.75,0.71 -1.2,0.71 -0.55,0 -0.73,0 -0.98,-0.25 -0.11,-0.11 -0.11,-0.21 -0.41,-1.46 -1,-3.98 -2.14,-4.98 -3.39,-4.98 -0.55,0 -1.14,0.2 -1.14,1.84 0,0.75 0.09,1.46 0.3,2.14 z"
           inkscape:connector-curvature="0"
           style="fill:#000000;stroke-width:0" /><path
           id="path1011"
           d="m 503.86,409.87 v 0.71 l -0.02,0.68 -0.03,0.66 -0.04,0.64 -0.06,0.62 -0.08,0.6 -0.09,0.57 -0.1,0.56 -0.13,0.55 -0.15,0.53 -0.17,0.51 -0.19,0.5 -0.21,0.49 -0.24,0.48 -0.26,0.47 -0.14,0.23 -0.15,0.23 c -1.08,1.61 -3.23,3 -6.03,3 v -0.98 c 1.89,0 3.7,-1.14 4.33,-3.17 0.56,-1.88 0.59,-4.39 0.59,-7.43 0,-2.57 0,-5.15 -0.45,-7.34 -0.7,-3.17 -3.06,-3.94 -4.47,-3.94 v 0 c -1.59,0 -3.72,0.94 -4.42,3.8 -0.49,2.05 -0.49,4.91 -0.49,7.48 0,2.55 0,5.21 0.52,7.11 0.73,2.75 2.97,3.49 4.39,3.49 v 0.98 c -8.08,0 -8.08,-9.51 -8.08,-12.03 0,-2.5 0,-11.81 8.08,-11.81 8.09,0 8.09,9.31 8.09,11.81 z"
           inkscape:connector-curvature="0"
           style="fill:#000000;stroke-width:0" /></g>    </g>
    <g
       id="g1064"
       transform="matrix(0.77831381,0,0,0.77831381,-19.53869,136.48281)">
      <g
         word-spacing="normal"
         letter-spacing="normal"
         font-size-adjust="none"
         font-stretch="normal"
         font-weight="normal"
         font-variant="normal"
         font-style="normal"
         stroke-miterlimit="10.433"
         xml:space="preserve"
         transform="matrix(0.3,0,0,-0.3,-52.5,222.75)"
         id="g1062"
         style="font-style:normal;font-variant:normal;font-weight:normal;font-stretch:normal;letter-spacing:normal;word-spacing:normal;text-anchor:start;fill:none;fill-opacity:1;fill-rule:evenodd;stroke:#000000;stroke-linecap:butt;stroke-linejoin:miter;stroke-miterlimit:10.43299961;stroke-dasharray:none;stroke-dashoffset:0;stroke-opacity:1"><path
           id="path1058"
           d="m 485.41,439.03 0.01,0.03 0.01,0.03 0.01,0.03 0.01,0.03 v 0.03 l 0.01,0.03 0.01,0.03 0.01,0.02 v 0.03 l 0.01,0.02 0.01,0.03 v 0.02 l 0.01,0.02 0.01,0.03 v 0.02 l 0.01,0.02 v 0.02 l 0.01,0.02 v 0.02 l 0.01,0.01 v 0.02 l 0.01,0.02 v 0.03 l 0.01,0.03 0.01,0.03 v 0.02 l 0.01,0.03 v 0.02 l 0.01,0.02 v 0.01 0.02 0.01 l 0.01,0.02 v 0.01 0.01 0.01 0.01 0 0.01 0.01 0 0.01 c 0,0.66 -0.54,0.91 -1.09,0.91 -0.2,0 -0.25,0 -0.36,-0.05 l -6.42,-0.3 c -0.7,-0.06 -1.6,-0.11 -1.6,-1.5 0,-0.9 0.9,-0.9 1.3,-0.9 0.55,0 1.44,0 2.1,-0.1 l -2.69,-11.01 c -0.75,0.7 -2.39,1.79 -5.03,1.79 l 0.09,-1.79 c 2.94,0 4.14,-2.33 4.14,-2.88 l -0.11,-0.7 -3.03,-12.5 c -1.45,-1.7 -3.8,-3.25 -6.19,-3.25 -3.08,0 -3.33,2.69 -3.33,3.8 0,2.57 1.69,8.72 2.49,10.65 1.55,3.64 3.98,4.88 6.03,4.88 l -0.09,1.79 c -8.68,0 -14.07,-7.87 -14.07,-14.68 0,-6.14 4.6,-8.24 8.72,-8.24 3.55,0 6.14,1.96 6.94,2.71 1.89,-2.71 5.17,-2.71 5.72,-2.71 1.84,0 3.3,1.05 4.34,2.85 1.25,2 1.89,4.68 1.89,4.93 0,0.71 -0.75,0.71 -1.2,0.71 -0.55,0 -0.73,0 -0.98,-0.25 -0.11,-0.11 -0.11,-0.21 -0.41,-1.46 -1,-3.98 -2.14,-4.98 -3.39,-4.98 -0.55,0 -1.14,0.2 -1.14,1.84 0,0.75 0.09,1.46 0.3,2.14 z"
           inkscape:connector-curvature="0"
           style="fill:#000000;stroke-width:0" /><path
           id="path1060"
           d="m 497.55,420.92 v 0.04 0.04 0.05 0.04 0.03 0.04 0.04 0.03 l -0.01,0.04 v 0.03 0.03 0.03 0.03 l -0.01,0.03 v 0.03 0.02 l -0.01,0.03 v 0.02 l -0.01,0.03 v 0.02 l -0.02,0.04 -0.01,0.04 -0.02,0.03 -0.02,0.03 -0.02,0.03 -0.02,0.03 -0.03,0.02 -0.03,0.02 -0.04,0.02 -0.03,0.01 -0.04,0.01 -0.05,0.02 h -0.02 -0.03 l -0.02,0.01 h -0.03 l -0.02,0.01 h -0.03 -0.03 -0.03 -0.04 l -0.03,0.01 h -0.03 -0.04 -0.04 -0.03 -0.04 -0.04 -0.04 -0.05 -0.04 -0.05 c -2.23,-2.2 -5.39,-2.23 -6.82,-2.23 v -1.25 c 0.84,0 3.14,0 5.04,0.97 v -17.77 c 0,-1.16 0,-1.61 -3.48,-1.61 h -1.31 v -1.25 c 0.62,0.03 4.9,0.14 6.2,0.14 1.08,0 5.47,-0.11 6.23,-0.14 v 1.25 h -1.32 c -3.49,0 -3.49,0.45 -3.49,1.61 z"
           inkscape:connector-curvature="0"
           style="fill:#000000;stroke-width:0" /></g>    </g>
    <g
       id="g1117"
       transform="matrix(0.77831381,0,0,0.77831381,70.530939,82.368176)">
      <g
         word-spacing="normal"
         letter-spacing="normal"
         font-size-adjust="none"
         font-stretch="normal"
         font-weight="normal"
         font-variant="normal"
         font-style="normal"
         stroke-miterlimit="10.433"
         xml:space="preserve"
         transform="matrix(0.3,0,0,-0.3,-52.5,222.75)"
         id="g1115"
         style="font-style:normal;font-variant:normal;font-weight:normal;font-stretch:normal;letter-spacing:normal;word-spacing:normal;text-anchor:start;fill:none;fill-opacity:1;fill-rule:evenodd;stroke:#000000;stroke-linecap:butt;stroke-linejoin:miter;stroke-miterlimit:10.43299961;stroke-dasharray:none;stroke-dashoffset:0;stroke-opacity:1"><path
           id="path1111"
           d="m 485.41,439.03 0.01,0.03 0.01,0.03 0.01,0.03 0.01,0.03 v 0.03 l 0.01,0.03 0.01,0.03 0.01,0.02 v 0.03 l 0.01,0.02 0.01,0.03 v 0.02 l 0.01,0.02 0.01,0.03 v 0.02 l 0.01,0.02 v 0.02 l 0.01,0.02 v 0.02 l 0.01,0.01 v 0.02 l 0.01,0.02 v 0.03 l 0.01,0.03 0.01,0.03 v 0.02 l 0.01,0.03 v 0.02 l 0.01,0.02 v 0.01 0.02 0.01 l 0.01,0.02 v 0.01 0.01 0.01 0.01 0 0.01 0.01 0 0.01 c 0,0.66 -0.54,0.91 -1.09,0.91 -0.2,0 -0.25,0 -0.36,-0.05 l -6.42,-0.3 c -0.7,-0.06 -1.6,-0.11 -1.6,-1.5 0,-0.9 0.9,-0.9 1.3,-0.9 0.55,0 1.44,0 2.1,-0.1 l -2.69,-11.01 c -0.75,0.7 -2.39,1.79 -5.03,1.79 l 0.09,-1.79 c 2.94,0 4.14,-2.33 4.14,-2.88 l -0.11,-0.7 -3.03,-12.5 c -1.45,-1.7 -3.8,-3.25 -6.19,-3.25 -3.08,0 -3.33,2.69 -3.33,3.8 0,2.57 1.69,8.72 2.49,10.65 1.55,3.64 3.98,4.88 6.03,4.88 l -0.09,1.79 c -8.68,0 -14.07,-7.87 -14.07,-14.68 0,-6.14 4.6,-8.24 8.72,-8.24 3.55,0 6.14,1.96 6.94,2.71 1.89,-2.71 5.17,-2.71 5.72,-2.71 1.84,0 3.3,1.05 4.34,2.85 1.25,2 1.89,4.68 1.89,4.93 0,0.71 -0.75,0.71 -1.2,0.71 -0.55,0 -0.73,0 -0.98,-0.25 -0.11,-0.11 -0.11,-0.21 -0.41,-1.46 -1,-3.98 -2.14,-4.98 -3.39,-4.98 -0.55,0 -1.14,0.2 -1.14,1.84 0,0.75 0.09,1.46 0.3,2.14 z"
           inkscape:connector-curvature="0"
           style="fill:#000000;stroke-width:0" /><path
           id="path1113"
           d="m 503.47,405.11 h -1.18 c -0.1,-0.77 -0.46,-2.83 -0.91,-3.18 -0.27,-0.2 -2.95,-0.2 -3.44,-0.2 h -6.42 c 3.66,3.23 4.87,4.2 6.97,5.84 2.58,2.07 4.98,4.22 4.98,7.54 0,4.21 -3.68,6.79 -8.15,6.79 -4.32,0 -7.25,-3.03 -7.25,-6.23 0,-1.78 1.5,-1.96 1.86,-1.96 0.82,0 1.84,0.6 1.84,1.85 0,0.62 -0.25,1.84 -2.06,1.84 1.08,2.47 3.45,3.24 5.09,3.24 3.49,0 5.3,-2.71 5.3,-5.53 0,-3.04 -2.16,-5.44 -3.28,-6.69 l -8.39,-8.3 c -0.36,-0.31 -0.36,-0.39 -0.36,-1.36 h 14.36 z"
           inkscape:connector-curvature="0"
           style="fill:#000000;stroke-width:0" /></g>    </g>
    <path
       style="fill:none;stroke:#000000;stroke-width:0.26458332px;stroke-linecap:butt;stroke-linejoin:miter;stroke-opacity:1"
       d="m 49.703868,155.44791 90.903272,9.4494 V 226.8854 L 50.081843,204.01785 Z"
       id="path1125"
       inkscape:connector-curvature="0" />
    <circle
       style="fill:#000000;fill-opacity:1;fill-rule:evenodd;stroke-width:0.1086761"
       id="path1127"
       cx="50.076279"
       cy="203.36867"
       r="1.3972641" />
    <circle
       style="fill:#000000;fill-opacity:1;fill-rule:evenodd;stroke-width:0.1086761"
       id="path1127-3"
       cx="140.63913"
       cy="226.82332"
       r="1.3972641" />
    <circle
       style="fill:#000000;fill-opacity:1;fill-rule:evenodd;stroke-width:0.1086761"
       id="path1127-6"
       cx="140.63834"
       cy="164.65775"
       r="1.3972641" />
    <path
       style="fill:none;stroke:#000000;stroke-width:0.26499999;stroke-linecap:butt;stroke-linejoin:miter;stroke-miterlimit:4;stroke-dasharray:none;stroke-opacity:1;marker-end:url(#Arrow1Lend)"
       d="m -24.321527,225.9063 74.40337,-21.88845"
       id="path1150"
       inkscape:connector-curvature="0"
       sodipodi:nodetypes="cc" />
    <path
       style="fill:none;stroke:#000000;stroke-width:0.26499999;stroke-linecap:butt;stroke-linejoin:miter;stroke-miterlimit:4;stroke-dasharray:none;stroke-opacity:1;marker-end:url(#Arrow1Lend-7)"
       d="M -24.321527,225.9063 140.60714,164.89731"
       id="path1150-3"
       inkscape:connector-curvature="0"
       sodipodi:nodetypes="cc" />
    <path
       style="fill:none;stroke:#000000;stroke-width:0.26499999;stroke-linecap:butt;stroke-linejoin:miter;stroke-miterlimit:4;stroke-dasharray:none;stroke-opacity:1;marker-end:url(#Arrow1Lend-5)"
       d="m -24.321527,225.9063 164.928667,0.9791"
       id="path1150-2"
       inkscape:connector-curvature="0"
       sodipodi:nodetypes="cc" />
    <circle
       style="fill:#000000;fill-opacity:1;fill-rule:evenodd;stroke-width:0.1086761"
       id="path1127-3-9"
       cx="-24.379465"
       cy="225.94048"
       r="1.3972641" />
    <g
       id="g2890"
       transform="matrix(0.48491899,0,0,0.48491899,-63.894353,183.30333)">
      <g
         word-spacing="normal"
         letter-spacing="normal"
         font-size-adjust="none"
         font-stretch="normal"
         font-weight="normal"
         font-variant="normal"
         font-style="normal"
         stroke-miterlimit="10.433"
         xml:space="preserve"
         transform="matrix(0.3,0,0,-0.3,-52.5,222.75)"
         id="g2888"
         style="font-style:normal;font-variant:normal;font-weight:normal;font-stretch:normal;letter-spacing:normal;word-spacing:normal;text-anchor:start;fill:none;fill-opacity:1;fill-rule:evenodd;stroke:#000000;stroke-linecap:butt;stroke-linejoin:miter;stroke-miterlimit:10.43299961;stroke-dasharray:none;stroke-dashoffset:0;stroke-opacity:1"><path
           id="path2860"
           d="m 472.91,425.53 -6.37,1.54 c -3.1,0.75 -5.04,3.44 -5.04,6.33 0,3.49 2.69,6.53 6.58,6.53 8.31,0 9.41,-8.17 9.71,-10.42 0.04,-0.3 0.04,-0.59 0.6,-0.59 0.65,0 0.65,0.25 0.65,1.2 v 10 c 0,0.86 0,1.2 -0.55,1.2 -0.35,0 -0.41,-0.04 -0.75,-0.65 L 476,437.84 c -1.5,1.44 -3.54,3.48 -7.98,3.48 -5.53,0 -9.7,-4.39 -9.7,-9.67 0,-4.12 2.64,-7.76 6.51,-9.11 0.55,-0.2 3.1,-0.79 6.58,-1.64 1.34,-0.36 2.84,-0.7 4.23,-2.54 1.05,-1.3 1.55,-2.94 1.55,-4.58 0,-3.55 -2.48,-7.13 -6.67,-7.13 -1.45,0 -5.23,0.25 -7.88,2.69 -2.89,2.69 -3.04,5.87 -3.09,7.67 -0.05,0.5 -0.44,0.5 -0.59,0.5 -0.64,0 -0.64,-0.36 -0.64,-1.25 v -9.97 c 0,-0.84 0,-1.18 0.54,-1.18 0.35,0 0.39,0.09 0.74,0.64 0,0.04 0.15,0.2 1.79,2.84 1.55,-1.69 4.74,-3.48 9.18,-3.48 5.82,0 9.81,4.87 9.81,10.35 0,4.99 -3.28,9.07 -7.47,10.07 z"
           inkscape:connector-curvature="0"
           style="fill:#000000;stroke-width:0" /><path
           id="path2862"
           d="m 499.83,409.98 0.02,-0.19 0.03,-0.18 0.04,-0.19 0.04,-0.18 0.05,-0.19 0.06,-0.18 0.06,-0.18 0.07,-0.18 0.07,-0.18 0.08,-0.17 0.09,-0.18 0.09,-0.16 0.1,-0.16 0.11,-0.16 0.12,-0.16 0.11,-0.14 0.13,-0.14 0.13,-0.14 0.14,-0.13 0.15,-0.12 0.15,-0.12 0.15,-0.1 0.17,-0.1 0.16,-0.09 0.18,-0.08 0.18,-0.07 0.19,-0.06 0.19,-0.05 0.2,-0.04 0.21,-0.03 0.21,-0.02 0.21,-0.01 c 1.03,0 4.08,0.71 4.08,4.74 v 2.78 h -1.25 v -2.78 c 0,-2.89 -1.23,-3.19 -1.8,-3.19 -1.64,0 -1.84,2.23 -1.84,2.48 v 9.97 c 0,2.1 0,4.03 -1.78,5.88 -1.95,1.93 -4.44,2.73 -6.83,2.73 -4.09,0 -7.53,-2.33 -7.53,-5.62 0,-1.49 1,-2.35 2.3,-2.35 1.39,0 2.29,1 2.29,2.3 0,0.59 -0.25,2.23 -2.54,2.3 1.34,1.73 3.78,2.28 5.37,2.28 2.45,0 5.28,-1.94 5.28,-6.38 v -1.84 -1.05 -4.98 c 0,-4.74 -3.58,-6.42 -5.83,-6.42 -2.43,0 -4.48,1.75 -4.48,4.23 0,2.73 2.09,6.88 10.31,7.17 v 0 1.05 c -2.53,-0.14 -6.01,-0.3 -9.15,-1.8 -3.74,-1.69 -4.99,-4.28 -4.99,-6.47 0,-4.03 4.83,-5.28 7.97,-5.28 3.3,0 5.58,1.99 6.53,4.33 z"
           inkscape:connector-curvature="0"
           style="fill:#000000;stroke-width:0" /><path
           id="path2864"
           d="m 513.68,423.34 v -13.36 c 0,-2.23 -0.55,-2.23 -3.89,-2.23 v -1.55 c 1.75,0.05 4.28,0.16 5.62,0.16 1.3,0 3.89,-0.11 5.58,-0.16 v 1.55 c -3.33,0 -3.87,0 -3.87,2.23 v 9.17 c 0,5.19 3.53,7.97 6.72,7.97 3.14,0 3.68,-2.69 3.68,-5.53 v -11.61 c 0,-2.23 -0.54,-2.23 -3.89,-2.23 v -1.55 c 1.75,0.05 4.3,0.16 5.64,0.16 1.3,0 3.88,-0.11 5.58,-0.16 v 1.55 c -3.34,0 -3.89,0 -3.89,2.23 v 9.17 c 0,5.19 3.55,7.97 6.74,7.97 3.14,0 3.68,-2.69 3.68,-5.53 v -11.61 c 0,-2.23 -0.54,-2.23 -3.89,-2.23 v -1.55 c 1.74,0.05 4.28,0.16 5.63,0.16 1.29,0 3.89,-0.11 5.58,-0.16 v 1.55 c -2.58,0 -3.83,0 -3.88,1.5 v 9.51 c 0,4.28 0,5.83 -1.55,7.61 -0.7,0.86 -2.34,1.84 -5.23,1.84 -4.19,0 -6.38,-2.98 -7.22,-4.87 -0.7,4.33 -4.39,4.87 -6.62,4.87 -3.65,0 -5.99,-2.14 -7.38,-5.21 v 5.21 l -7.03,-0.54 v -1.55 c 3.48,0 3.89,-0.34 3.89,-2.78 z"
           inkscape:connector-curvature="0"
           style="fill:#000000;stroke-width:0" /><path
           id="path2866"
           d="m 558.28,424.93 v 3.28 l -7.18,-0.54 v -1.55 c 3.55,0 3.9,-0.3 3.9,-2.48 v -23.32 c 0,-2.25 -0.55,-2.25 -3.9,-2.25 v -1.54 c 1.71,0.06 4.29,0.15 5.58,0.15 1.35,0 3.89,-0.09 5.64,-0.15 v 1.54 c -3.34,0 -3.89,0 -3.89,2.25 v 8.36 0.46 l 0.71,0.65 c -0.71,1.05 -0.71,1.1 -0.71,2.08 v 0 11.13 c 1.44,2.53 3.89,3.98 6.42,3.98 3.65,0 6.69,-4.39 6.69,-10.02 0,-6.03 -3.5,-10.21 -7.19,-10.21 -1.98,0 -3.87,1 -5.21,3.04 l -0.71,-0.65 c 0.25,-0.8 2.35,-3.49 6.13,-3.49 5.94,0 11.11,4.88 11.11,11.31 0,6.33 -4.83,11.25 -10.41,11.25 -3.89,0 -5.98,-2.18 -6.98,-3.28 z"
           inkscape:connector-curvature="0"
           style="fill:#000000;stroke-width:0" /><path
           id="path2868"
           d="m 586.25,440.78 -7.18,-0.55 v -1.55 c 3.49,0 3.9,-0.34 3.9,-2.79 v -25.91 c 0,-2.23 -0.55,-2.23 -3.9,-2.23 v -1.55 c 1.65,0.05 4.28,0.16 5.53,0.16 1.25,0 3.69,-0.11 5.54,-0.16 v 1.55 c -3.35,0 -3.89,0 -3.89,2.23 z"
           inkscape:connector-curvature="0"
           style="fill:#000000;stroke-width:0" /><path
           id="path2870"
           d="m 596.76,417.71 0.05,1.05 c 0.29,7.42 4.48,8.66 6.19,8.66 5.12,0 5.62,-6.72 5.62,-8.66 h -11.81 l -0.05,-1.05 h 13.91 c 1.09,0 1.23,0 1.23,1.05 0,4.92 -2.68,9.75 -8.9,9.75 -5.78,0 -10.38,-5.12 -10.38,-11.36 0,-6.67 5.23,-11.5 10.97,-11.5 6.08,0 8.31,5.53 8.31,6.47 0,0.5 -0.39,0.61 -0.64,0.61 -0.45,0 -0.54,-0.3 -0.66,-0.7 -1.73,-5.13 -6.21,-5.13 -6.71,-5.13 -2.5,0 -4.49,1.49 -5.63,3.33 -1.5,2.39 -1.5,5.69 -1.5,7.48 z"
           inkscape:connector-curvature="0"
           style="fill:#000000;stroke-width:0" /><path
           id="path2872"
           d="m 665.79,423.09 -0.02,0.95 -0.07,0.93 -0.1,0.92 -0.15,0.9 -0.19,0.89 -0.23,0.86 -0.26,0.85 -0.3,0.83 -0.33,0.81 -0.37,0.79 -0.41,0.76 -0.43,0.74 -0.47,0.72 -0.49,0.68 -0.53,0.66 -0.55,0.64 -0.58,0.6 -0.6,0.57 -0.63,0.54 -0.65,0.5 -0.68,0.47 -0.69,0.44 -0.72,0.4 -0.73,0.36 -0.75,0.33 -0.77,0.28 -0.78,0.25 -0.8,0.2 -0.81,0.16 -0.83,0.11 -0.83,0.07 -0.84,0.02 v -1.25 c 4.34,0 11.46,-3.53 11.46,-16.28 0,-13.2 -6.82,-17.39 -11.42,-17.39 v 0 c -4.78,0 -11.45,4.38 -11.45,17.39 0,12.89 7.28,16.28 11.41,16.28 v 1.25 c -8.93,0 -16.54,-7.96 -16.54,-18.23 0,-10.22 7.68,-17.98 16.54,-17.98 9.06,0 16.59,7.92 16.59,17.98 z"
           inkscape:connector-curvature="0"
           style="fill:#000000;stroke-width:0" /><path
           id="path2874"
           d="m 676.94,422.75 v 5.46 l -6.92,-0.54 v -1.55 c 3.48,0 3.89,-0.34 3.89,-2.78 v -13.36 c 0,-2.23 -0.55,-2.23 -3.89,-2.23 v -1.55 c 1.95,0.05 4.28,0.16 5.68,0.16 1.99,0 4.33,0 6.33,-0.16 v 1.55 h -1.05 c -3.68,0 -3.79,0.54 -3.79,2.34 v 7.67 c 0,4.92 2.09,9.36 5.89,9.36 0.34,0 0.44,0 0.54,-0.05 -0.15,-0.04 -1.15,-0.64 -1.15,-1.93 0,-1.41 1.05,-2.14 2.15,-2.14 0.9,0 2.15,0.59 2.15,2.18 0,1.6 -1.55,3.03 -3.69,3.03 -3.64,0 -5.44,-3.32 -6.14,-5.46 z"
           inkscape:connector-curvature="0"
           style="fill:#000000;stroke-width:0" /><path
           id="path2876"
           d="m 697,428.21 -6.97,-0.54 v -1.55 c 3.23,0 3.69,-0.3 3.69,-2.73 v -13.41 c 0,-2.23 -0.55,-2.23 -3.9,-2.23 v -1.55 c 1.6,0.05 4.28,0.16 5.49,0.16 1.75,0 3.48,-0.11 5.19,-0.16 v 1.55 c -3.3,0 -3.5,0.25 -3.5,2.18 z"
           inkscape:connector-curvature="0"
           style="fill:#000000;stroke-width:0" /><path
           id="path2878"
           d="m 697.2,436.89 v 0.14 l -0.02,0.15 -0.01,0.14 -0.03,0.14 -0.03,0.13 -0.04,0.13 -0.04,0.13 -0.05,0.12 -0.05,0.12 -0.06,0.12 -0.07,0.11 -0.07,0.1 -0.08,0.1 -0.08,0.1 -0.08,0.1 -0.09,0.08 -0.09,0.09 -0.1,0.08 -0.1,0.07 -0.1,0.07 -0.11,0.07 -0.11,0.06 -0.12,0.05 -0.11,0.05 -0.12,0.04 -0.12,0.04 -0.12,0.03 -0.13,0.03 -0.12,0.02 -0.13,0.01 -0.13,0.01 -0.13,0.01 c -1.55,0 -2.64,-1.35 -2.64,-2.64 0,-1.35 1.09,-2.64 2.64,-2.64 1.39,0 2.64,1.04 2.64,2.64 z"
           inkscape:connector-curvature="0"
           style="fill:#000000;stroke-width:0" /><path
           id="path2880"
           d="m 707.26,412.82 v 0.03 0.02 0.03 0.04 l 0.01,0.04 v 0.05 0.05 l 0.01,0.06 v 0.05 l 0.01,0.07 0.01,0.06 0.01,0.07 0.01,0.07 0.01,0.08 0.02,0.08 0.02,0.08 0.02,0.08 0.02,0.08 0.03,0.09 0.03,0.09 0.03,0.09 0.04,0.09 0.04,0.09 0.04,0.1 0.04,0.09 0.05,0.1 0.06,0.09 0.06,0.1 0.06,0.09 0.07,0.1 0.07,0.09 0.07,0.1 c 1.96,-1.39 3.99,-1.55 4.94,-1.55 v 1.14 c -4.34,0 -4.34,4.99 -4.34,6.14 0,1.35 0.06,2.94 0.8,4.17 0.4,0.61 1.54,2 3.54,2 4.33,0 4.33,-4.98 4.33,-6.12 0,-1.34 -0.05,-2.94 -0.8,-4.19 -0.39,-0.59 -1.54,-2 -3.53,-2 v 0 -1.14 c 4.63,0 8.06,3.44 8.06,7.28 0,1.85 -0.79,3.69 -2.03,4.83 1.78,1.69 3.58,1.94 4.49,1.94 0.09,0 0.34,0 0.5,-0.05 -0.56,-0.2 -0.8,-0.75 -0.8,-1.34 0,-0.85 0.64,-1.44 1.44,-1.44 0.5,0 1.44,0.34 1.44,1.48 0,0.85 -0.6,2.44 -2.54,2.44 -1,0 -3.18,-0.3 -5.28,-2.33 -2.09,1.64 -4.18,1.78 -5.28,1.78 -4.64,0 -8.07,-3.43 -8.07,-7.26 0,-2.19 1.09,-4.09 2.34,-5.14 -0.64,-0.74 -1.55,-2.39 -1.55,-4.13 0,-1.54 0.66,-3.43 2.21,-4.43 -3,-0.85 -4.6,-2.99 -4.6,-4.99 0,-3.58 4.94,-6.33 11.02,-6.33 l 0.04,1.14 c -5.03,0 -8.46,2.55 -8.46,5.19 0,2.3 1.88,4.14 4.09,4.28 H 713 c 4.28,0 9.85,0 9.85,-4.28 0,-2.69 -3.53,-5.19 -8.42,-5.19 v 0 l -0.04,-1.14 c 5.87,0 11.06,2.55 11.06,6.43 0,1.75 -0.7,4.29 -3.23,5.68 -2.65,1.39 -5.54,1.39 -8.58,1.39 -1.25,0 -3.39,0 -3.74,0.05 -1.59,0.2 -2.64,1.75 -2.64,3.34 z"
           inkscape:connector-curvature="0"
           style="fill:#000000;stroke-width:0" /><path
           id="path2882"
           d="m 735.75,428.21 -6.97,-0.54 v -1.55 c 3.24,0 3.69,-0.3 3.69,-2.73 v -13.41 c 0,-2.23 -0.55,-2.23 -3.89,-2.23 v -1.55 c 1.59,0.05 4.28,0.16 5.48,0.16 1.75,0 3.49,-0.11 5.19,-0.16 v 1.55 c -3.3,0 -3.5,0.25 -3.5,2.18 z"
           inkscape:connector-curvature="0"
           style="fill:#000000;stroke-width:0" /><path
           id="path2884"
           d="m 735.95,436.89 v 0.14 l -0.01,0.15 -0.02,0.14 -0.02,0.14 -0.03,0.13 -0.04,0.13 -0.04,0.13 -0.05,0.12 -0.06,0.12 -0.06,0.12 -0.07,0.11 -0.07,0.1 -0.07,0.1 -0.08,0.1 -0.09,0.1 -0.09,0.08 -0.09,0.09 -0.1,0.08 -0.1,0.07 -0.1,0.07 -0.11,0.07 -0.11,0.06 -0.11,0.05 -0.12,0.05 -0.12,0.04 -0.12,0.04 -0.12,0.03 -0.12,0.03 -0.13,0.02 -0.13,0.01 -0.13,0.01 -0.13,0.01 c -1.54,0 -2.64,-1.35 -2.64,-2.64 0,-1.35 1.1,-2.64 2.64,-2.64 1.39,0 2.64,1.04 2.64,2.64 z"
           inkscape:connector-curvature="0"
           style="fill:#000000;stroke-width:0" /><path
           id="path2886"
           d="m 746.22,423.34 v -13.36 c 0,-2.23 -0.55,-2.23 -3.89,-2.23 v -1.55 c 1.75,0.05 4.28,0.16 5.62,0.16 1.3,0 3.89,-0.11 5.58,-0.16 v 1.55 c -3.33,0 -3.87,0 -3.87,2.23 v 9.17 c 0,5.19 3.53,7.97 6.72,7.97 3.14,0 3.68,-2.69 3.68,-5.53 v -11.61 c 0,-2.23 -0.54,-2.23 -3.89,-2.23 v -1.55 c 1.75,0.05 4.3,0.16 5.64,0.16 1.3,0 3.88,-0.11 5.58,-0.16 v 1.55 c -2.59,0 -3.84,0 -3.89,1.5 v 9.51 c 0,4.28 0,5.83 -1.55,7.61 -0.68,0.86 -2.34,1.84 -5.22,1.84 -3.64,0 -5.98,-2.14 -7.37,-5.21 v 5.21 l -7.03,-0.54 v -1.55 c 3.48,0 3.89,-0.34 3.89,-2.78 z"
           inkscape:connector-curvature="0"
           style="fill:#000000;stroke-width:0" /></g>    </g>
  </g>
</svg>
